<svg width="2370" height="2090" viewBox="0 0 2370 2090" fill="none" xmlns="http://www.w3.org/2000/svg">
<mask id="mask0_5908_133471" style="mask-type:alpha" maskUnits="userSpaceOnUse" x="0" y="1502" width="916" height="430">
<path d="M0 1502.39H915.07V1931.2H0V1502.39Z" fill="white"/>
</mask>
<g mask="url(#mask0_5908_133471)">
<path fill-rule="evenodd" clip-rule="evenodd" d="M402.412 1852.85C317.525 1876.01 231.737 1816.53 237.164 1735.74C237.287 1733.86 237.447 1732.01 237.643 1730.19C243.253 1677.43 -24.4307 1615.09 1.81121 1547.95C28.0577 1480.82 269.494 1476.02 400.709 1615.09C531.923 1754.17 603.117 1699.01 667.245 1688.23C731.372 1677.43 799.608 1711 825.845 1773.35C852.091 1835.68 820.601 1902.82 915.078 1912.41C915.078 1912.41 762.864 1969.96 621.15 1883.64C535.529 1831.49 453.744 1838.85 402.412 1852.85Z" fill="#004590"/>
</g>
<path d="M78.3174 1553.27C78.3174 1553.27 275.453 1650.77 338.255 1694.31C401.062 1737.84 459.538 1779.4 569.989 1781.37C642.895 1782.68 704.481 1823.64 737.922 1851.34C771.782 1879.39 812.613 1899.8 857.21 1908.92C876.595 1912.88 896.718 1914.8 915.069 1912.41" stroke="#64B5F6" stroke-width="11.9651" stroke-linecap="round"/>
<path d="M205.435 1560.47L236.499 1634.91L140.898 1619.43" stroke="#64B5F6" stroke-width="11.9651" stroke-linecap="round"/>
<path d="M269.976 1733.36L386.919 1726.91" stroke="#64B5F6" stroke-width="11.9651" stroke-linecap="round"/>
<path d="M318.914 1607.24L338.248 1694.31" stroke="#64B5F6" stroke-width="11.9651" stroke-linecap="round"/>
<path d="M411.708 1690.6L485.497 1769.68H352.284" stroke="#64B5F6" stroke-width="11.9651" stroke-linecap="round"/>
<path d="M540.694 1730.14L625.968 1790.01L550.662 1812.75" stroke="#64B5F6" stroke-width="11.9651" stroke-linecap="round"/>
<path fill-rule="evenodd" clip-rule="evenodd" d="M674.832 1480.74C674.832 1480.74 862.226 1285.7 722.384 1222.23C582.539 1158.76 605.327 1442.48 674.832 1480.74Z" fill="#2196F3"/>
<path fill-rule="evenodd" clip-rule="evenodd" d="M801.232 1657.51C801.232 1657.51 931.418 1495.53 830.258 1451.61C729.11 1407.67 754.381 1601.43 801.232 1657.51Z" fill="#64B5F6"/>
<path fill-rule="evenodd" clip-rule="evenodd" d="M546.147 1720.15C577.061 1745.73 647.778 1771.34 784.823 1675.14C784.823 1675.14 668.429 1603.54 594.527 1627.45C564.697 1637.11 547.818 1650.25 538.285 1662.48C524.543 1680.14 528.101 1705.22 546.147 1720.15Z" fill="#2196F3"/>
<path fill-rule="evenodd" clip-rule="evenodd" d="M641.751 1505.88C641.751 1505.88 516.26 1436 433.849 1449.36C386.969 1456.96 358.833 1476.72 343.296 1492.33C326.758 1508.95 322.158 1533.89 333.899 1554.5C346.435 1576.51 378.345 1596.69 457.252 1583.39C606.764 1558.23 641.751 1505.88 641.751 1505.88Z" fill="#64B5F6"/>
<path fill-rule="evenodd" clip-rule="evenodd" d="M542.723 1390.03C542.723 1390.03 514.593 1261.68 451.557 1209.78C388.529 1157.91 332.568 1163 307.955 1190.72C283.343 1218.42 275.169 1276.43 331.426 1324.67C387.669 1372.91 542.723 1390.03 542.723 1390.03Z" fill="#155384"/>
<path d="M826.859 1730.01C826.859 1730.01 594.683 1373.51 354.492 1224.36" stroke="#1565C0" stroke-width="17.0929" stroke-linecap="round"/>
<path d="M712.124 1287.51C712.124 1287.51 662.391 1403.7 657.495 1504C657.495 1504 535.612 1477.74 404.433 1516.45" stroke="#1565C0" stroke-width="17.0929" stroke-linecap="round"/>
<path d="M574.762 1684.1C648.978 1663.9 786.158 1675.48 786.158 1675.48C786.158 1675.48 824.462 1595.49 816.241 1542.08" stroke="#1565C0" stroke-width="17.0929" stroke-linecap="round"/>
<mask id="mask1_5908_133471" style="mask-type:alpha" maskUnits="userSpaceOnUse" x="1258" y="1411" width="1109" height="520">
<path d="M2366.9 1411.16H1258.56V1930.54H2366.9V1411.16Z" fill="white"/>
</mask>
<g mask="url(#mask1_5908_133471)">
<path fill-rule="evenodd" clip-rule="evenodd" d="M1879.5 1835.64C1982.31 1863.68 2086.22 1791.65 2079.65 1693.8C2079.49 1691.51 2079.3 1689.27 2079.06 1687.06C2072.27 1623.18 2396.49 1547.66 2364.7 1466.35C2332.92 1385.03 2040.49 1379.22 1881.55 1547.66C1722.63 1716.11 1636.4 1649.3 1558.72 1636.24C1481.05 1623.18 1398.41 1663.83 1366.62 1739.34C1334.84 1814.85 1372.99 1896.16 1258.56 1907.78C1258.56 1907.78 1442.91 1977.48 1614.55 1872.93C1718.26 1809.76 1817.32 1818.69 1879.5 1835.64Z" fill="#004590"/>
</g>
<path d="M2272.03 1472.79C2272.03 1472.79 2033.27 1590.89 1957.2 1643.61C1881.13 1696.34 1810.3 1746.67 1676.52 1749.06C1588.22 1750.65 1513.62 1800.27 1473.12 1833.82C1432.11 1867.78 1382.65 1892.51 1328.64 1903.54C1305.16 1908.35 1280.78 1910.67 1258.56 1907.78" stroke="#64B5F6" stroke-width="11.9651" stroke-linecap="round"/>
<path d="M2118.07 1481.5L2080.44 1571.66L2196.24 1552.92" stroke="#64B5F6" stroke-width="11.9651" stroke-linecap="round"/>
<path d="M2039.91 1690.92L1898.27 1683.11" stroke="#64B5F6" stroke-width="11.9651" stroke-linecap="round"/>
<path d="M1980.62 1538.15L1957.21 1643.61" stroke="#64B5F6" stroke-width="11.9651" stroke-linecap="round"/>
<path d="M1868.24 1639.12L1778.86 1734.91H1940.21" stroke="#64B5F6" stroke-width="11.9651" stroke-linecap="round"/>
<path d="M1712 1687.02L1608.71 1759.53L1699.92 1787.07" stroke="#7D7BA2" stroke-width="11.9651" stroke-linecap="round"/>
<path fill-rule="evenodd" clip-rule="evenodd" d="M1725.94 1384.94C1725.94 1384.94 1498.97 1148.71 1668.34 1071.83C1837.73 994.966 1810.12 1338.6 1725.94 1384.94Z" fill="#2196F3"/>
<path fill-rule="evenodd" clip-rule="evenodd" d="M1572.83 1599.04C1572.83 1599.04 1415.16 1402.85 1537.67 1349.66C1660.19 1296.44 1629.58 1531.12 1572.83 1599.04Z" fill="#64B5F6"/>
<path fill-rule="evenodd" clip-rule="evenodd" d="M1881.8 1674.92C1844.36 1705.91 1758.71 1736.92 1592.71 1620.4C1592.71 1620.4 1733.7 1533.67 1823.2 1562.64C1859.34 1574.33 1879.78 1590.24 1891.33 1605.07C1907.97 1626.46 1903.66 1656.84 1881.8 1674.92Z" fill="#2196F3"/>
<path fill-rule="evenodd" clip-rule="evenodd" d="M1766 1415.4C1766 1415.4 1918 1330.76 2017.81 1346.94C2074.59 1356.14 2108.67 1380.07 2127.49 1398.99C2147.52 1419.11 2153.09 1449.31 2138.87 1474.28C2123.69 1500.95 2085.03 1525.38 1989.46 1509.29C1808.38 1478.8 1766 1415.4 1766 1415.4Z" fill="#64B5F6"/>
<path fill-rule="evenodd" clip-rule="evenodd" d="M1885.95 1275.07C1885.95 1275.07 1920.02 1119.61 1996.37 1056.77C2072.71 993.925 2140.49 1000.09 2170.3 1033.66C2200.11 1067.22 2210.01 1137.48 2141.87 1195.91C2073.75 1254.34 1885.95 1275.07 1885.95 1275.07Z" fill="#155384"/>
<path d="M1541.79 1686.86C1541.79 1686.86 1823 1255.06 2113.93 1074.41" stroke="#1565C0" stroke-width="17.0929" stroke-linecap="round"/>
<path d="M1680.76 1150.89C1680.76 1150.89 1741 1291.63 1746.93 1413.11C1746.93 1413.11 1894.56 1381.3 2053.45 1428.18" stroke="#1565C0" stroke-width="17.0929" stroke-linecap="round"/>
<path d="M1847.14 1631.27C1757.24 1606.79 1591.09 1620.82 1591.09 1620.82C1591.09 1620.82 1544.69 1523.93 1554.66 1459.24" stroke="#1565C0" stroke-width="17.0929" stroke-linecap="round"/>
<g filter="url(#filter0_d_5908_133471)">
<path d="M1572.48 93.2344H933.523C803.624 93.2344 698.315 189.449 698.315 308.136V1747.92C698.315 1866.6 803.624 1962.82 933.523 1962.82H1572.48C1702.38 1962.82 1807.69 1866.6 1807.69 1747.92V308.136C1807.69 189.449 1702.38 93.2344 1572.48 93.2344Z" fill="black"/>
</g>
<path d="M1572.48 93.2344H933.523C803.624 93.2344 698.315 189.449 698.315 308.136V1747.92C698.315 1866.6 803.624 1962.82 933.523 1962.82H1572.48C1702.38 1962.82 1807.69 1866.6 1807.69 1747.92V308.136C1807.69 189.449 1702.38 93.2344 1572.48 93.2344Z" fill="white"/>
<g filter="url(#filter1_i_5908_133471)">
<path d="M1572.48 93.2344H933.523C803.624 93.2344 698.315 189.449 698.315 308.136V1747.92C698.315 1866.6 803.624 1962.82 933.523 1962.82H1572.48C1702.38 1962.82 1807.69 1866.6 1807.69 1747.92V308.136C1807.69 189.449 1702.38 93.2344 1572.48 93.2344Z" fill="black"/>
</g>
<path d="M1571.01 94.5771H934.991C805.092 94.5771 699.787 190.792 699.787 309.478V1746.57C699.787 1865.26 805.092 1961.48 934.991 1961.48H1571.01C1700.91 1961.48 1806.22 1865.26 1806.22 1746.57V309.478C1806.22 190.792 1700.91 94.5771 1571.01 94.5771Z" stroke="#DCDCDC" stroke-width="3.88476"/>
<path d="M1545.55 116.042H960.476C830.569 116.042 725.267 212.257 725.267 330.943V1724.58C725.267 1843.27 830.569 1939.48 960.476 1939.48H1545.55C1675.45 1939.48 1780.76 1843.27 1780.76 1724.58V330.943C1780.76 212.257 1675.45 116.042 1545.55 116.042Z" fill="white" stroke="#DCDCDC" stroke-width="3.88476"/>
<path opacity="0.346749" d="M1250.71 1207.28C1483.63 1207.28 1672.44 1034.77 1672.44 821.955C1672.44 609.144 1483.63 436.625 1250.71 436.625C1017.79 436.625 828.971 609.144 828.971 821.955C828.971 1034.77 1017.79 1207.28 1250.71 1207.28Z" fill="#D8D8D8"/>
<g filter="url(#filter2_d_5908_133471)">
<path d="M1250.71 1119.22C1430.4 1119.22 1576.06 986.127 1576.06 821.949C1576.06 657.775 1430.4 524.685 1250.71 524.685C1071.03 524.685 925.354 657.775 925.354 821.949C925.354 986.127 1071.03 1119.22 1250.71 1119.22Z" fill="black"/>
</g>
<path d="M1247.98 1119.97C1427.67 1119.97 1573.33 986.879 1573.33 822.701C1573.33 658.527 1427.67 525.437 1247.98 525.437C1068.29 525.437 922.63 658.527 922.63 822.701C922.63 986.879 1068.29 1119.97 1247.98 1119.97Z" fill="url(#paint0_linear_5908_133471)"/>
<g opacity="0.543285">
<path d="M1378.72 1442.82H1125.48C1061.73 1442.82 1010.04 1481.08 1010.04 1528.28C1010.04 1575.48 1061.73 1613.75 1125.48 1613.75H1378.72C1442.48 1613.75 1494.17 1575.48 1494.17 1528.28C1494.17 1481.08 1442.48 1442.82 1378.72 1442.82Z" stroke="#6D7278" stroke-width="7.76952"/>
<path d="M1232.05 1500.56C1240.75 1500.56 1247.09 1502.27 1251.07 1505.69C1255.05 1509.1 1257.03 1513.92 1257.03 1520.14C1257.03 1523.8 1256.2 1527.25 1254.52 1530.49C1252.9 1533.66 1250.14 1536.24 1246.22 1538.22C1242.37 1540.21 1237.11 1541.21 1230.46 1541.21H1222.82V1567.13H1214.43V1500.56H1232.05ZM1231.3 1507.74H1222.82V1534.03H1229.53C1235.87 1534.03 1240.59 1533 1243.7 1530.95C1246.81 1528.9 1248.36 1525.42 1248.36 1520.51C1248.36 1516.22 1246.97 1513.02 1244.17 1510.91C1241.43 1508.79 1237.14 1507.74 1231.3 1507.74ZM1277.96 1567.13H1269.75V1496.27H1277.96V1567.13ZM1312.72 1516.31C1318.81 1516.31 1323.32 1517.65 1326.24 1520.32C1329.16 1523 1330.62 1527.25 1330.62 1533.1V1567.13H1324.65L1323.07 1560.04H1322.69C1320.52 1562.78 1318.22 1564.8 1315.8 1566.1C1313.37 1567.41 1310.08 1568.06 1305.91 1568.06C1301.38 1568.06 1297.61 1566.88 1294.63 1564.52C1291.65 1562.09 1290.16 1558.33 1290.16 1553.24C1290.16 1548.26 1292.11 1544.44 1296.03 1541.77C1299.95 1539.03 1305.97 1537.54 1314.12 1537.29L1322.6 1537.01V1534.03C1322.6 1529.86 1321.7 1526.97 1319.9 1525.36C1318.1 1523.74 1315.55 1522.93 1312.25 1522.93C1309.64 1522.93 1307.16 1523.34 1304.79 1524.15C1302.43 1524.89 1300.23 1525.76 1298.17 1526.76L1295.66 1520.6C1297.83 1519.42 1300.41 1518.43 1303.4 1517.62C1306.38 1516.75 1309.49 1516.31 1312.72 1516.31ZM1322.51 1542.7L1315.14 1542.98C1308.93 1543.23 1304.61 1544.22 1302.18 1545.96C1299.82 1547.7 1298.64 1550.16 1298.64 1553.33C1298.64 1556.13 1299.48 1558.18 1301.16 1559.48C1302.9 1560.79 1305.1 1561.44 1307.78 1561.44C1311.94 1561.44 1315.42 1560.29 1318.22 1557.99C1321.08 1555.63 1322.51 1552.02 1322.51 1547.18V1542.7ZM1338.23 1517.15H1346.99L1357.81 1545.59C1358.74 1548.14 1359.58 1550.53 1360.32 1552.77C1361.07 1555.01 1361.63 1557.15 1362 1559.2H1362.37C1362.75 1557.65 1363.34 1555.63 1364.15 1553.14C1364.95 1550.59 1365.79 1548.05 1366.66 1545.5L1376.83 1517.15H1385.68L1364.15 1574.03C1362.34 1578.75 1360.07 1582.51 1357.34 1585.31C1354.6 1588.11 1350.81 1589.5 1345.96 1589.5C1344.47 1589.5 1343.17 1589.41 1342.05 1589.22C1340.93 1589.1 1339.97 1588.94 1339.16 1588.76V1582.23C1339.84 1582.36 1340.65 1582.48 1341.58 1582.6C1342.58 1582.73 1343.6 1582.79 1344.66 1582.79C1347.52 1582.79 1349.82 1581.98 1351.56 1580.37C1353.3 1578.75 1354.7 1576.61 1355.75 1573.93L1358.36 1567.31L1338.23 1517.15Z" fill="#6D7278"/>
<path fill-rule="evenodd" clip-rule="evenodd" d="M1108.52 1483.56C1081.48 1483.56 1059.52 1503.61 1059.52 1528.33C1059.52 1553.04 1081.48 1573.1 1108.52 1573.1C1135.57 1573.1 1157.53 1553.04 1157.53 1528.33C1157.53 1503.61 1135.57 1483.56 1108.52 1483.56ZM1098.73 1548.47V1508.18L1128.13 1528.33L1098.73 1548.47Z" fill="#6D7278"/>
</g>
<path d="M1253.51 571.096C1359.78 574.421 1443.22 663.264 1439.9 769.517C1436.58 875.782 1347.75 959.228 1241.48 955.904C1135.23 952.576 1051.77 863.741 1055.1 757.483C1058.41 651.231 1147.26 567.771 1253.51 571.096Z" fill="#155384"/>
<g filter="url(#filter3_i_5908_133471)">
<path d="M1380.38 656.17C1407.44 689.267 1422.4 732.422 1418.94 778.384C1411.8 873.142 1329.23 944.398 1234.86 937.234C1189.08 933.756 1148.84 912.419 1120.32 880.586C1149.03 915.717 1191.38 939.505 1239.97 943.19C1334.34 950.358 1416.89 879.109 1424.03 784.351C1427.71 735.566 1410.65 689.963 1380.38 656.17Z" fill="white"/>
</g>
<g filter="url(#filter4_i_5908_133471)">
<path d="M1355.78 630.271C1322.31 603.732 1279.06 589.52 1233.35 593.863C1139.13 602.809 1069.73 687.047 1078.64 781.649C1082.97 827.547 1104.96 867.542 1137.21 895.571C1101.68 867.408 1077.2 825.337 1072.61 776.629C1063.7 682.025 1133.08 597.804 1227.32 588.858C1275.82 584.247 1321.57 600.516 1355.78 630.271Z" fill="white"/>
</g>
<g filter="url(#filter5_i_5908_133471)">
<path d="M1355.53 645.851C1325.18 621.781 1285.95 608.891 1244.5 612.83C1159.04 620.944 1096.1 697.345 1104.18 783.147C1108.1 824.775 1128.05 861.049 1157.29 886.47C1125.08 860.929 1102.87 822.773 1098.7 778.595C1090.62 692.793 1153.56 616.405 1239.02 608.29C1283.01 604.108 1324.51 618.864 1355.53 645.851Z" fill="#5595C7"/>
</g>
<g filter="url(#filter6_i_5908_133471)">
<path d="M1145.76 884.216C1176.11 908.288 1215.34 921.176 1256.79 917.236C1342.24 909.122 1405.19 832.722 1397.11 746.92C1393.19 705.292 1373.24 669.017 1344 643.596C1376.21 669.139 1398.42 707.294 1402.59 751.472C1410.67 837.274 1347.73 913.663 1262.27 921.778C1218.27 925.96 1176.78 911.204 1145.76 884.216Z" fill="#5595C7"/>
</g>
<g filter="url(#filter7_d_5908_133471)">
<g filter="url(#filter8_ii_5908_133471)">
<path d="M1239.09 730.987C1237.7 736.537 1234.5 744.343 1233.08 747.55C1236.37 755.965 1241.94 747.626 1244.32 742.403L1245.11 740.611L1245.74 742.403C1247.27 742.403 1251.02 742.628 1253.81 743.524C1258.87 746.208 1265.73 752.849 1268.52 755.831L1271.37 756.502L1269.31 757.623L1274.06 769.263L1282.76 760.307L1285.77 765.008L1309.51 734.121V850.854H1340.21V672.345H1309.19L1266.47 730.091L1274.06 745.762C1272.06 743.821 1267.51 739.359 1265.36 737.03C1261.94 737.567 1256.23 732.63 1253.81 730.091C1249.96 730.392 1241.62 730.987 1239.09 730.987Z" fill="white"/>
</g>
<g filter="url(#filter9_ii_5908_133471)">
<path d="M1235.61 734.567C1228.27 738.151 1227.07 736.805 1227.38 735.688L1229.92 730.091L1187.67 672.345H1156.34V849.816H1187.67V734.567L1210.93 765.008L1221.21 747.325C1220.1 751.13 1217.73 759.549 1217.1 762.77C1222.29 764.562 1227.17 771.425 1228.97 774.631C1229.44 773.812 1230.83 771.635 1232.61 769.484C1237.67 766.8 1238.15 774.41 1239.25 775.527C1243.43 772.662 1245.11 777.468 1245.42 780.228C1246 779.706 1247.45 778.977 1248.59 780.228C1251.91 783.587 1250.64 787.168 1250.49 789.852C1253.27 792.358 1254.07 789.554 1254.12 787.839C1252.75 784.781 1249.82 778.393 1249.06 777.319C1248.3 776.246 1249.38 775.977 1250.01 775.977C1251.17 778.215 1254 783.722 1256.02 787.839C1260.07 790.345 1261.19 786.196 1261.24 783.809C1259.51 780.305 1255.8 772.887 1254.91 771.276C1254.03 769.666 1255.29 769.709 1256.02 769.934C1257.18 772.393 1260.23 778.618 1263.14 783.809C1267.07 785.064 1267.84 781.498 1267.73 779.557C1265.57 775.455 1261.06 766.843 1260.3 765.233C1259.54 763.622 1260.61 763.22 1261.24 763.22C1262.93 766.724 1266.88 774.454 1269.16 777.319C1272.58 778.034 1273.22 774.334 1273.11 772.393C1272.11 769.709 1269.35 762.636 1266.31 755.831C1260.61 750.64 1255.39 747.103 1253.49 745.982L1245.58 744.415C1244.68 745.91 1242.16 749.653 1239.25 752.697C1235.61 756.502 1230.23 750.459 1230.87 748.892C1237.04 734.792 1235.61 736.805 1235.61 734.567Z" fill="white"/>
</g>
<g filter="url(#filter10_i_5908_133471)">
<path d="M1222.16 777.99C1220.64 774.588 1222.58 771.2 1223.74 769.934C1225.77 771.366 1227.33 775.005 1227.86 776.648C1226.59 778.512 1223.68 781.393 1222.16 777.99Z" fill="white"/>
</g>
<g filter="url(#filter11_i_5908_133471)">
<path d="M1236.78 779.419C1237.95 777.513 1237.75 774.567 1236.34 772.838C1234.92 771.109 1232.83 771.253 1231.67 773.159L1228.86 777.747C1227.7 779.653 1227.9 782.6 1229.31 784.328C1230.72 786.057 1232.81 785.914 1233.98 784.008L1236.78 779.419Z" fill="white"/>
</g>
<g filter="url(#filter12_i_5908_133471)">
<path d="M1243.75 783.896C1244.91 781.99 1244.71 779.044 1243.3 777.315C1241.89 775.586 1239.8 775.729 1238.63 777.635L1235.83 782.224C1234.66 784.13 1234.86 787.076 1236.27 788.805C1237.69 790.534 1239.78 790.39 1240.94 788.484L1243.75 783.896Z" fill="white"/>
</g>
<g filter="url(#filter13_i_5908_133471)">
<path d="M1249.21 788.386C1250.16 786.83 1250 784.423 1248.85 783.01C1247.69 781.598 1245.98 781.715 1245.03 783.272L1242.74 787.028C1241.78 788.585 1241.95 790.992 1243.1 792.404C1244.26 793.816 1245.96 793.699 1246.91 792.142L1249.21 788.386Z" fill="white"/>
</g>
</g>
<path d="M1241.63 900.869L1238.11 889.35H1220.49L1216.96 900.869H1205.92L1223 852.285H1235.53L1252.67 900.869H1241.63ZM1232.14 869.496C1231.92 868.728 1231.62 867.757 1231.26 866.583C1230.9 865.408 1230.54 864.211 1230.18 862.991C1229.82 861.772 1229.52 860.71 1229.3 859.807C1229.07 860.71 1228.76 861.839 1228.35 863.195C1227.99 864.505 1227.63 865.769 1227.26 866.989C1226.95 868.164 1226.7 868.999 1226.52 869.496L1223.06 880.744H1235.67L1232.14 869.496ZM1274.25 852.488C1280.49 852.488 1285.02 853.844 1287.87 856.554C1290.76 859.219 1292.21 862.901 1292.21 867.599C1292.21 869.722 1291.89 871.755 1291.26 873.697C1290.63 875.595 1289.56 877.311 1288.07 878.847C1286.63 880.338 1284.71 881.512 1282.31 882.371C1279.92 883.229 1276.96 883.658 1273.44 883.658H1269.03V900.869H1258.8V852.488H1274.25ZM1273.71 860.891H1269.03V875.256H1272.42C1274.36 875.256 1276.04 875.007 1277.44 874.51C1278.84 874.014 1279.92 873.223 1280.69 872.139C1281.46 871.055 1281.84 869.654 1281.84 867.938C1281.84 865.544 1281.19 863.782 1279.88 862.652C1278.57 861.478 1276.51 860.891 1273.71 860.891Z" fill="white"/>
<path d="M1103.65 1019.75L1091.67 979.952H1091.39C1091.44 980.899 1091.51 982.321 1091.6 984.217C1091.69 986.113 1091.79 988.148 1091.88 990.324C1091.97 992.507 1092.02 994.45 1092.02 996.151V1019.75H1082.61V969.004H1096.96L1108.74 1007.81H1108.95L1121.42 969.004H1135.78V1019.75H1125.95V995.731C1125.95 994.115 1125.97 992.266 1126.02 990.184C1126.11 988.102 1126.18 986.136 1126.23 984.287C1126.32 982.391 1126.39 980.969 1126.44 980.022H1126.16L1113.34 1019.75H1103.65ZM1163.19 980.239C1168.43 980.239 1172.6 981.777 1175.66 984.854C1178.73 987.884 1180.26 992.22 1180.26 997.86V1002.97H1155.73C1155.82 1005.96 1156.69 1008.3 1158.31 1010.01C1159.98 1011.71 1162.28 1012.57 1165.21 1012.57C1167.63 1012.57 1169.83 1012.33 1171.83 1011.86C1173.87 1011.34 1175.96 1010.56 1178.1 1009.51V1017.69C1176.2 1018.64 1174.22 1019.32 1172.18 1019.75C1170.13 1020.22 1167.65 1020.45 1164.72 1020.45C1160.91 1020.45 1157.54 1019.75 1154.62 1018.33C1151.69 1016.86 1149.39 1014.68 1147.72 1011.79C1146.04 1008.85 1145.21 1005.13 1145.21 1000.63C1145.21 996.128 1145.96 992.367 1147.44 989.329C1148.97 986.299 1151.08 984.023 1153.78 982.508C1156.48 980.993 1159.61 980.239 1163.19 980.239ZM1163.26 987.768C1161.22 987.768 1159.54 988.428 1158.24 989.757C1156.94 991.085 1156.17 993.144 1155.94 995.941H1170.5C1170.45 993.618 1169.83 991.676 1168.62 990.114C1167.46 988.552 1165.68 987.768 1163.26 987.768ZM1210.28 980.239C1214.37 980.239 1217.65 981.373 1220.1 983.65C1222.56 985.872 1223.8 989.477 1223.8 994.45V1019.75H1213.41V997.076C1213.41 994.286 1212.93 992.196 1211.95 990.821C1210.98 989.399 1209.42 988.692 1207.28 988.692C1204.13 988.692 1201.97 989.803 1200.8 992.033C1199.64 994.209 1199.06 997.363 1199.06 1001.48V1019.75H1188.68V980.946H1196.62L1198.01 985.919H1198.57C1199.78 983.93 1201.43 982.484 1203.52 981.583C1205.66 980.69 1207.91 980.239 1210.28 980.239ZM1250.5 1012C1251.66 1012 1252.78 1011.91 1253.84 1011.71C1254.92 1011.48 1255.98 1011.17 1257.05 1010.8V1018.68C1255.93 1019.2 1254.54 1019.63 1252.87 1019.96C1251.24 1020.29 1249.45 1020.45 1247.5 1020.45C1245.23 1020.45 1243.18 1020.08 1241.37 1019.32C1239.61 1018.57 1238.19 1017.26 1237.12 1015.41C1236.1 1013.56 1235.59 1010.96 1235.59 1007.6V988.902H1230.64V984.427L1236.35 980.876L1239.35 972.703H1245.97V980.946H1256.63V988.902H1245.97V1007.6C1245.97 1009.06 1246.39 1010.18 1247.22 1010.94C1248.06 1011.64 1249.15 1012 1250.5 1012ZM1299.25 1000.28C1299.25 1006.72 1297.58 1011.69 1294.23 1015.2C1290.94 1018.71 1286.43 1020.45 1280.72 1020.45C1277.18 1020.45 1274.03 1019.68 1271.24 1018.12C1268.5 1016.55 1266.34 1014.28 1264.76 1011.29C1263.17 1008.26 1262.39 1004.59 1262.39 1000.28C1262.39 993.836 1264.04 988.879 1267.34 985.421C1270.63 981.964 1275.16 980.239 1280.92 980.239C1284.5 980.239 1287.66 981.016 1290.4 982.578C1293.14 984.147 1295.3 986.416 1296.88 989.399C1298.46 992.391 1299.25 996.011 1299.25 1000.28ZM1272.98 1000.28C1272.98 1004.11 1273.59 1007.03 1274.79 1009.02C1276.05 1010.96 1278.07 1011.93 1280.85 1011.93C1283.59 1011.93 1285.57 1010.96 1286.78 1009.02C1288.03 1007.03 1288.66 1004.11 1288.66 1000.28C1288.66 996.439 1288.03 993.572 1286.78 991.676C1285.57 989.733 1283.57 988.762 1280.79 988.762C1278.05 988.762 1276.05 989.733 1274.79 991.676C1273.59 993.572 1272.98 996.439 1272.98 1000.28ZM1329.08 980.239C1329.6 980.239 1330.2 980.262 1330.89 980.309C1331.59 980.356 1332.15 980.426 1332.56 980.519L1331.8 990.472C1331.43 990.378 1330.94 990.301 1330.33 990.254C1329.74 990.161 1329.2 990.114 1328.73 990.114C1326.97 990.114 1325.28 990.448 1323.65 991.109C1322.02 991.722 1320.7 992.74 1319.67 994.162C1318.7 995.584 1318.21 997.526 1318.21 999.989V1019.75H1307.83V980.946H1315.7L1317.24 987.488H1317.72C1318.84 985.491 1320.37 983.79 1322.32 982.368C1324.27 980.946 1326.53 980.239 1329.08 980.239Z" fill="black"/>
<path d="M1368.95 1019.75H1340.31V969.004H1368.95V977.823H1350.83V988.98H1367.7V997.79H1350.83V1010.87H1368.95V1019.75ZM1420.55 993.882C1420.55 1002.45 1418.16 1008.92 1413.37 1013.28C1408.59 1017.59 1401.92 1019.75 1393.38 1019.75H1379.3V969.004H1394.91C1400.11 969.004 1404.62 969.952 1408.42 971.848C1412.29 973.744 1415.25 976.541 1417.34 980.239C1419.48 983.93 1420.55 988.483 1420.55 993.882ZM1409.61 994.162C1409.61 988.576 1408.4 984.45 1405.99 981.801C1403.58 979.144 1400.06 977.823 1395.47 977.823H1389.82V1010.87H1394.35C1404.52 1010.87 1409.61 1005.3 1409.61 994.162Z" fill="#155384"/>
<defs>
<filter id="filter0_d_5908_133471" x="589.542" y="0.000169754" width="1326.92" height="2087.13" filterUnits="userSpaceOnUse" color-interpolation-filters="sRGB">
<feFlood flood-opacity="0" result="BackgroundImageFix"/>
<feColorMatrix in="SourceAlpha" type="matrix" values="0 0 0 0 0 0 0 0 0 0 0 0 0 0 0 0 0 0 127 0" result="hardAlpha"/>
<feOffset dy="15.539"/>
<feGaussianBlur stdDeviation="54.3866"/>
<feColorMatrix type="matrix" values="0 0 0 0 0.166808 0 0 0 0 0.166808 0 0 0 0 0.166808 0 0 0 0.309441 0"/>
<feBlend mode="normal" in2="BackgroundImageFix" result="effect1_dropShadow_5908_133471"/>
<feBlend mode="normal" in="SourceGraphic" in2="effect1_dropShadow_5908_133471" result="shape"/>
</filter>
<filter id="filter1_i_5908_133471" x="698.315" y="93.2344" width="1109.37" height="1877.36" filterUnits="userSpaceOnUse" color-interpolation-filters="sRGB">
<feFlood flood-opacity="0" result="BackgroundImageFix"/>
<feBlend mode="normal" in="SourceGraphic" in2="BackgroundImageFix" result="shape"/>
<feColorMatrix in="SourceAlpha" type="matrix" values="0 0 0 0 0 0 0 0 0 0 0 0 0 0 0 0 0 0 127 0" result="hardAlpha"/>
<feOffset dy="7.76952"/>
<feGaussianBlur stdDeviation="50.5019"/>
<feComposite in2="hardAlpha" operator="arithmetic" k2="-1" k3="1"/>
<feColorMatrix type="matrix" values="0 0 0 0 0.684047 0 0 0 0 0.684047 0 0 0 0 0.684047 0 0 0 0.542614 0"/>
<feBlend mode="normal" in2="shape" result="effect1_innerShadow_5908_133471"/>
</filter>
<filter id="filter2_d_5908_133471" x="738.886" y="353.755" width="1023.64" height="967.471" filterUnits="userSpaceOnUse" color-interpolation-filters="sRGB">
<feFlood flood-opacity="0" result="BackgroundImageFix"/>
<feColorMatrix in="SourceAlpha" type="matrix" values="0 0 0 0 0 0 0 0 0 0 0 0 0 0 0 0 0 0 127 0" result="hardAlpha"/>
<feOffset dy="15.539"/>
<feGaussianBlur stdDeviation="93.2342"/>
<feColorMatrix type="matrix" values="0 0 0 0 0 0 0 0 0 0 0 0 0 0 0 0 0 0 0.2 0"/>
<feBlend mode="normal" in2="BackgroundImageFix" result="effect1_dropShadow_5908_133471"/>
<feBlend mode="normal" in="SourceGraphic" in2="effect1_dropShadow_5908_133471" result="shape"/>
</filter>
<filter id="filter3_i_5908_133471" x="1120.32" y="656.17" width="304.209" height="289.021" filterUnits="userSpaceOnUse" color-interpolation-filters="sRGB">
<feFlood flood-opacity="0" result="BackgroundImageFix"/>
<feBlend mode="normal" in="SourceGraphic" in2="BackgroundImageFix" result="shape"/>
<feColorMatrix in="SourceAlpha" type="matrix" values="0 0 0 0 0 0 0 0 0 0 0 0 0 0 0 0 0 0 127 0" result="hardAlpha"/>
<feOffset dy="1.50391"/>
<feGaussianBlur stdDeviation="0.751953"/>
<feComposite in2="hardAlpha" operator="arithmetic" k2="-1" k3="1"/>
<feColorMatrix type="matrix" values="0 0 0 0 0 0 0 0 0 0 0 0 0 0 0 0 0 0 0.25 0"/>
<feBlend mode="normal" in2="shape" result="effect1_innerShadow_5908_133471"/>
</filter>
<filter id="filter4_i_5908_133471" x="1071.83" y="588.084" width="283.942" height="308.991" filterUnits="userSpaceOnUse" color-interpolation-filters="sRGB">
<feFlood flood-opacity="0" result="BackgroundImageFix"/>
<feBlend mode="normal" in="SourceGraphic" in2="BackgroundImageFix" result="shape"/>
<feColorMatrix in="SourceAlpha" type="matrix" values="0 0 0 0 0 0 0 0 0 0 0 0 0 0 0 0 0 0 127 0" result="hardAlpha"/>
<feOffset dy="1.50391"/>
<feGaussianBlur stdDeviation="0.751953"/>
<feComposite in2="hardAlpha" operator="arithmetic" k2="-1" k3="1"/>
<feColorMatrix type="matrix" values="0 0 0 0 0 0 0 0 0 0 0 0 0 0 0 0 0 0 0.25 0"/>
<feBlend mode="normal" in2="shape" result="effect1_innerShadow_5908_133471"/>
</filter>
<filter id="filter5_i_5908_133471" x="1098" y="607.588" width="257.527" height="280.385" filterUnits="userSpaceOnUse" color-interpolation-filters="sRGB">
<feFlood flood-opacity="0" result="BackgroundImageFix"/>
<feBlend mode="normal" in="SourceGraphic" in2="BackgroundImageFix" result="shape"/>
<feColorMatrix in="SourceAlpha" type="matrix" values="0 0 0 0 0 0 0 0 0 0 0 0 0 0 0 0 0 0 127 0" result="hardAlpha"/>
<feOffset dy="1.50391"/>
<feGaussianBlur stdDeviation="0.751953"/>
<feComposite in2="hardAlpha" operator="arithmetic" k2="-1" k3="1"/>
<feColorMatrix type="matrix" values="0 0 0 0 0 0 0 0 0 0 0 0 0 0 0 0 0 0 0.25 0"/>
<feBlend mode="normal" in2="shape" result="effect1_innerShadow_5908_133471"/>
</filter>
<filter id="filter6_i_5908_133471" x="1145.76" y="643.596" width="257.528" height="280.388" filterUnits="userSpaceOnUse" color-interpolation-filters="sRGB">
<feFlood flood-opacity="0" result="BackgroundImageFix"/>
<feBlend mode="normal" in="SourceGraphic" in2="BackgroundImageFix" result="shape"/>
<feColorMatrix in="SourceAlpha" type="matrix" values="0 0 0 0 0 0 0 0 0 0 0 0 0 0 0 0 0 0 127 0" result="hardAlpha"/>
<feOffset dy="1.50391"/>
<feGaussianBlur stdDeviation="0.751953"/>
<feComposite in2="hardAlpha" operator="arithmetic" k2="-1" k3="1"/>
<feColorMatrix type="matrix" values="0 0 0 0 0 0 0 0 0 0 0 0 0 0 0 0 0 0 0.25 0"/>
<feBlend mode="normal" in2="shape" result="effect1_innerShadow_5908_133471"/>
</filter>
<filter id="filter7_d_5908_133471" x="1152.58" y="668.585" width="195.147" height="189.789" filterUnits="userSpaceOnUse" color-interpolation-filters="sRGB">
<feFlood flood-opacity="0" result="BackgroundImageFix"/>
<feColorMatrix in="SourceAlpha" type="matrix" values="0 0 0 0 0 0 0 0 0 0 0 0 0 0 0 0 0 0 127 0" result="hardAlpha"/>
<feOffset dx="1.87988" dy="1.87988"/>
<feGaussianBlur stdDeviation="2.81982"/>
<feColorMatrix type="matrix" values="0 0 0 0 0.501961 0 0 0 0 0.501961 0 0 0 0 0.501961 0 0 0 0.5 0"/>
<feBlend mode="normal" in2="BackgroundImageFix" result="effect1_dropShadow_5908_133471"/>
<feBlend mode="normal" in="SourceGraphic" in2="effect1_dropShadow_5908_133471" result="shape"/>
</filter>
<filter id="filter8_ii_5908_133471" x="1233.08" y="672.345" width="107.877" height="180.013" filterUnits="userSpaceOnUse" color-interpolation-filters="sRGB">
<feFlood flood-opacity="0" result="BackgroundImageFix"/>
<feBlend mode="normal" in="SourceGraphic" in2="BackgroundImageFix" result="shape"/>
<feColorMatrix in="SourceAlpha" type="matrix" values="0 0 0 0 0 0 0 0 0 0 0 0 0 0 0 0 0 0 127 0" result="hardAlpha"/>
<feOffset dx="0.751953" dy="1.50391"/>
<feGaussianBlur stdDeviation="1.87988"/>
<feComposite in2="hardAlpha" operator="arithmetic" k2="-1" k3="1"/>
<feColorMatrix type="matrix" values="0 0 0 0 0 0 0 0 0 0 0 0 0 0 0 0 0 0 0.35 0"/>
<feBlend mode="normal" in2="shape" result="effect1_innerShadow_5908_133471"/>
<feColorMatrix in="SourceAlpha" type="matrix" values="0 0 0 0 0 0 0 0 0 0 0 0 0 0 0 0 0 0 127 0" result="hardAlpha"/>
<feOffset dy="1.50391"/>
<feGaussianBlur stdDeviation="0.751953"/>
<feComposite in2="hardAlpha" operator="arithmetic" k2="-1" k3="1"/>
<feColorMatrix type="matrix" values="0 0 0 0 1 0 0 0 0 1 0 0 0 0 1 0 0 0 0.25 0"/>
<feBlend mode="normal" in2="effect1_innerShadow_5908_133471" result="effect2_innerShadow_5908_133471"/>
</filter>
<filter id="filter9_ii_5908_133471" x="1156.34" y="672.345" width="117.538" height="178.976" filterUnits="userSpaceOnUse" color-interpolation-filters="sRGB">
<feFlood flood-opacity="0" result="BackgroundImageFix"/>
<feBlend mode="normal" in="SourceGraphic" in2="BackgroundImageFix" result="shape"/>
<feColorMatrix in="SourceAlpha" type="matrix" values="0 0 0 0 0 0 0 0 0 0 0 0 0 0 0 0 0 0 127 0" result="hardAlpha"/>
<feOffset dy="1.50391"/>
<feGaussianBlur stdDeviation="0.751953"/>
<feComposite in2="hardAlpha" operator="arithmetic" k2="-1" k3="1"/>
<feColorMatrix type="matrix" values="0 0 0 0 0 0 0 0 0 0 0 0 0 0 0 0 0 0 0.25 0"/>
<feBlend mode="normal" in2="shape" result="effect1_innerShadow_5908_133471"/>
<feColorMatrix in="SourceAlpha" type="matrix" values="0 0 0 0 0 0 0 0 0 0 0 0 0 0 0 0 0 0 127 0" result="hardAlpha"/>
<feOffset dx="0.751953" dy="1.50391"/>
<feGaussianBlur stdDeviation="1.87988"/>
<feComposite in2="hardAlpha" operator="arithmetic" k2="-1" k3="1"/>
<feColorMatrix type="matrix" values="0 0 0 0 0.9625 0 0 0 0 0.940042 0 0 0 0 0.940042 0 0 0 0.35 0"/>
<feBlend mode="normal" in2="effect1_innerShadow_5908_133471" result="effect2_innerShadow_5908_133471"/>
</filter>
<filter id="filter10_i_5908_133471" x="1221.6" y="769.934" width="6.25293" height="11.1392" filterUnits="userSpaceOnUse" color-interpolation-filters="sRGB">
<feFlood flood-opacity="0" result="BackgroundImageFix"/>
<feBlend mode="normal" in="SourceGraphic" in2="BackgroundImageFix" result="shape"/>
<feColorMatrix in="SourceAlpha" type="matrix" values="0 0 0 0 0 0 0 0 0 0 0 0 0 0 0 0 0 0 127 0" result="hardAlpha"/>
<feOffset dy="1.50391"/>
<feGaussianBlur stdDeviation="1.87988"/>
<feComposite in2="hardAlpha" operator="arithmetic" k2="-1" k3="1"/>
<feColorMatrix type="matrix" values="0 0 0 0 0 0 0 0 0 0 0 0 0 0 0 0 0 0 0.35 0"/>
<feBlend mode="normal" in2="shape" result="effect1_innerShadow_5908_133471"/>
</filter>
<filter id="filter11_i_5908_133471" x="1228.1" y="771.63" width="9.43945" height="15.4106" filterUnits="userSpaceOnUse" color-interpolation-filters="sRGB">
<feFlood flood-opacity="0" result="BackgroundImageFix"/>
<feBlend mode="normal" in="SourceGraphic" in2="BackgroundImageFix" result="shape"/>
<feColorMatrix in="SourceAlpha" type="matrix" values="0 0 0 0 0 0 0 0 0 0 0 0 0 0 0 0 0 0 127 0" result="hardAlpha"/>
<feOffset dy="1.50391"/>
<feGaussianBlur stdDeviation="1.87988"/>
<feComposite in2="hardAlpha" operator="arithmetic" k2="-1" k3="1"/>
<feColorMatrix type="matrix" values="0 0 0 0 0 0 0 0 0 0 0 0 0 0 0 0 0 0 0.35 0"/>
<feBlend mode="normal" in2="shape" result="effect1_innerShadow_5908_133471"/>
</filter>
<filter id="filter12_i_5908_133471" x="1235.07" y="776.106" width="9.43945" height="15.4106" filterUnits="userSpaceOnUse" color-interpolation-filters="sRGB">
<feFlood flood-opacity="0" result="BackgroundImageFix"/>
<feBlend mode="normal" in="SourceGraphic" in2="BackgroundImageFix" result="shape"/>
<feColorMatrix in="SourceAlpha" type="matrix" values="0 0 0 0 0 0 0 0 0 0 0 0 0 0 0 0 0 0 127 0" result="hardAlpha"/>
<feOffset dy="1.50391"/>
<feGaussianBlur stdDeviation="1.87988"/>
<feComposite in2="hardAlpha" operator="arithmetic" k2="-1" k3="1"/>
<feColorMatrix type="matrix" values="0 0 0 0 0 0 0 0 0 0 0 0 0 0 0 0 0 0 0.35 0"/>
<feBlend mode="normal" in2="shape" result="effect1_innerShadow_5908_133471"/>
</filter>
<filter id="filter13_i_5908_133471" x="1242.12" y="782.023" width="7.71484" height="12.8716" filterUnits="userSpaceOnUse" color-interpolation-filters="sRGB">
<feFlood flood-opacity="0" result="BackgroundImageFix"/>
<feBlend mode="normal" in="SourceGraphic" in2="BackgroundImageFix" result="shape"/>
<feColorMatrix in="SourceAlpha" type="matrix" values="0 0 0 0 0 0 0 0 0 0 0 0 0 0 0 0 0 0 127 0" result="hardAlpha"/>
<feOffset dy="1.50391"/>
<feGaussianBlur stdDeviation="1.87988"/>
<feComposite in2="hardAlpha" operator="arithmetic" k2="-1" k3="1"/>
<feColorMatrix type="matrix" values="0 0 0 0 0 0 0 0 0 0 0 0 0 0 0 0 0 0 0.35 0"/>
<feBlend mode="normal" in2="shape" result="effect1_innerShadow_5908_133471"/>
</filter>
<linearGradient id="paint0_linear_5908_133471" x1="1247.98" y1="525.437" x2="1247.98" y2="1119.97" gradientUnits="userSpaceOnUse">
<stop stop-color="white"/>
<stop offset="1" stop-color="#F0F0F0"/>
</linearGradient>
</defs>
</svg>
