<svg width="1200" height="1200" viewBox="0 0 1200 1200" fill="none" xmlns="http://www.w3.org/2000/svg">
<path d="M615.992 88.2553C898.647 97.0981 1120.57 333.398 1111.75 616.003C1102.9 898.641 866.64 1120.59 583.986 1111.74C301.38 1102.89 79.4132 866.616 88.2553 583.997C97.0771 301.394 333.386 79.4125 615.992 88.2553Z" fill="#155384"/>
<g filter="url(#filter0_i_3785_71141)">
<path d="M953.422 314.532C1025.39 402.56 1065.18 517.341 1055.98 639.589C1037 891.621 817.373 1081.14 566.375 1062.09C444.614 1052.84 337.583 996.088 261.728 911.418C338.102 1004.86 450.725 1068.13 579.972 1077.93C830.96 1097 1050.55 907.492 1069.52 655.46C1079.32 525.705 1033.93 404.412 953.422 314.532Z" fill="white"/>
</g>
<g filter="url(#filter1_i_3785_71141)">
<path d="M887.987 245.645C798.972 175.057 683.928 137.258 562.369 148.809C311.774 172.604 127.182 396.655 150.88 648.272C162.384 770.347 220.889 876.724 306.643 951.274C212.161 876.367 147.038 764.471 134.824 634.919C111.126 383.298 295.68 159.292 546.312 135.497C675.328 123.233 796.993 166.504 887.987 245.645Z" fill="white"/>
</g>
<g filter="url(#filter2_i_3785_71141)">
<path d="M887.334 287.086C806.611 223.064 702.261 188.78 592.011 199.258C364.728 220.839 197.307 424.046 218.801 652.257C229.235 762.977 282.297 859.456 360.067 927.068C274.381 859.137 215.317 757.651 204.238 640.149C182.744 411.938 350.132 208.765 577.454 187.184C694.459 176.06 804.814 215.305 887.334 287.086Z" fill="#5595C7"/>
</g>
<g filter="url(#filter3_i_3785_71141)">
<path d="M329.387 921.076C410.109 985.099 514.459 1019.38 624.709 1008.9C851.993 987.318 1019.41 784.114 997.92 555.903C987.485 445.184 934.426 348.703 856.653 281.088C942.343 349.026 1001.41 450.51 1012.49 568.011C1033.98 796.223 866.588 999.398 639.276 1020.98C522.262 1032.1 411.916 992.856 329.387 921.076Z" fill="#5595C7"/>
</g>
<g filter="url(#filter4_d_3785_71141)">
<g filter="url(#filter5_ii_3785_71141)">
<path d="M577.636 513.522C573.937 528.284 565.433 549.046 561.647 557.575C570.401 579.958 585.218 557.777 591.53 543.884L593.635 539.118L595.316 543.884C599.381 543.884 609.374 544.483 616.782 546.866C630.244 554.005 648.481 571.67 655.918 579.601L663.499 581.386L658.022 584.367L670.648 615.327L693.795 591.506L701.79 604.01L764.919 521.858V832.337H846.573V357.55H764.083L650.451 511.139L670.648 552.818C665.315 547.657 653.228 535.79 647.501 529.596C638.411 531.024 623.229 517.893 616.782 511.139C606.539 511.94 584.372 513.522 577.636 513.522Z" fill="white"/>
</g>
<g filter="url(#filter6_ii_3785_71141)">
<path d="M568.384 523.045C548.85 532.577 545.659 528.998 546.495 526.026L553.231 511.139L440.858 357.55H357.531V829.578H440.858V523.045L502.728 604.01L530.084 556.977C527.134 567.097 520.821 589.49 519.14 598.057C532.947 602.823 545.938 621.077 550.704 629.606C551.972 627.425 555.672 621.637 560.39 615.915C573.851 608.776 575.12 629.017 578.06 631.989C589.168 624.367 593.636 637.15 594.471 644.493C596.018 643.103 599.862 641.164 602.889 644.493C611.729 653.426 608.366 662.949 607.943 670.088C615.351 676.755 617.484 669.297 617.619 664.734C613.977 656.601 606.175 639.611 604.157 636.755C602.139 633.899 604.993 633.185 606.684 633.185C609.769 639.138 617.283 653.784 622.673 664.734C633.444 671.401 636.423 660.363 636.557 654.015C631.936 644.695 622.087 624.965 619.723 620.682C617.369 616.398 620.713 616.514 622.673 617.112C625.757 623.653 633.867 640.209 641.612 654.015C652.047 657.353 654.093 647.869 653.815 642.708C648.069 631.796 636.058 608.892 634.04 604.608C632.013 600.325 634.876 599.254 636.557 599.254C641.054 608.574 651.547 629.133 657.601 636.755C666.7 638.656 668.41 628.815 668.122 623.653C665.46 616.514 658.11 597.7 650.029 579.601C634.876 565.795 620.991 556.388 615.937 553.407L594.894 549.239C592.511 553.214 585.804 563.171 578.06 571.265C568.384 581.386 554.077 565.312 555.758 561.144C572.17 523.643 568.384 528.998 568.384 523.045Z" fill="white"/>
</g>
<g filter="url(#filter7_i_3785_71141)">
<path d="M532.611 638.539C528.565 629.49 533.725 620.478 536.819 617.111C542.2 620.922 546.351 630.599 547.754 634.97C544.391 639.929 536.646 647.589 532.611 638.539Z" fill="white"/>
</g>
<g filter="url(#filter8_i_3785_71141)">
<path d="M571.499 642.34C574.598 637.272 574.065 629.435 570.307 624.837C566.549 620.239 560.99 620.621 557.89 625.689L550.426 637.895C547.327 642.963 547.86 650.8 551.618 655.398C555.376 659.996 560.935 659.614 564.035 654.546L571.499 642.34Z" fill="white"/>
</g>
<g filter="url(#filter9_i_3785_71141)">
<path d="M590.024 654.247C593.124 649.178 592.59 641.342 588.832 636.743C585.075 632.145 579.515 632.527 576.416 637.596L568.952 649.801C565.852 654.87 566.386 662.706 570.143 667.304C573.901 671.902 579.46 671.521 582.56 666.452L590.024 654.247Z" fill="white"/>
</g>
<g filter="url(#filter10_i_3785_71141)">
<path d="M604.549 666.19C607.081 662.05 606.645 655.648 603.575 651.891C600.505 648.135 595.964 648.447 593.431 652.587L587.322 662.577C584.79 666.718 585.226 673.12 588.296 676.876C591.366 680.632 595.907 680.321 598.44 676.18L604.549 666.19Z" fill="white"/>
</g>
</g>
<path d="M584.386 965.163L575.015 934.525H528.156L518.785 965.163H489.408L534.825 835.942H568.166L613.763 965.163H584.386ZM559.155 881.719C558.554 879.677 557.773 877.094 556.812 873.97C555.851 870.846 554.89 867.662 553.928 864.418C552.967 861.174 552.186 858.35 551.585 855.947C550.985 858.35 550.144 861.354 549.062 864.959C548.101 868.443 547.14 871.807 546.179 875.051C545.338 878.175 544.677 880.398 544.196 881.719L535.005 911.637H568.527L559.155 881.719ZM671.151 836.483C687.732 836.483 699.807 840.088 707.376 847.297C715.066 854.385 718.911 864.178 718.911 876.673C718.911 882.32 718.07 887.727 716.388 892.893C714.706 897.94 711.882 902.505 707.917 906.59C704.072 910.555 698.966 913.679 692.598 915.962C686.23 918.245 678.36 919.386 668.989 919.386H657.274V965.163H630.06V836.483H671.151ZM669.71 858.831H657.274V897.038H666.285C671.452 897.038 675.897 896.378 679.622 895.056C683.347 893.734 686.23 891.632 688.273 888.748C690.315 885.865 691.337 882.14 691.337 877.574C691.337 871.206 689.594 866.52 686.11 863.517C682.626 860.393 677.159 858.831 669.71 858.831Z" fill="white"/>
<defs>
<filter id="filter0_i_3785_71141" x="261.728" y="314.532" width="809.116" height="768.72" filterUnits="userSpaceOnUse" color-interpolation-filters="sRGB">
<feFlood flood-opacity="0" result="BackgroundImageFix"/>
<feBlend mode="normal" in="SourceGraphic" in2="BackgroundImageFix" result="shape"/>
<feColorMatrix in="SourceAlpha" type="matrix" values="0 0 0 0 0 0 0 0 0 0 0 0 0 0 0 0 0 0 127 0" result="hardAlpha"/>
<feOffset dy="4"/>
<feGaussianBlur stdDeviation="2"/>
<feComposite in2="hardAlpha" operator="arithmetic" k2="-1" k3="1"/>
<feColorMatrix type="matrix" values="0 0 0 0 0 0 0 0 0 0 0 0 0 0 0 0 0 0 0.25 0"/>
<feBlend mode="normal" in2="shape" result="effect1_innerShadow_3785_71141"/>
</filter>
<filter id="filter1_i_3785_71141" x="132.774" y="133.438" width="755.213" height="821.835" filterUnits="userSpaceOnUse" color-interpolation-filters="sRGB">
<feFlood flood-opacity="0" result="BackgroundImageFix"/>
<feBlend mode="normal" in="SourceGraphic" in2="BackgroundImageFix" result="shape"/>
<feColorMatrix in="SourceAlpha" type="matrix" values="0 0 0 0 0 0 0 0 0 0 0 0 0 0 0 0 0 0 127 0" result="hardAlpha"/>
<feOffset dy="4"/>
<feGaussianBlur stdDeviation="2"/>
<feComposite in2="hardAlpha" operator="arithmetic" k2="-1" k3="1"/>
<feColorMatrix type="matrix" values="0 0 0 0 0 0 0 0 0 0 0 0 0 0 0 0 0 0 0.25 0"/>
<feBlend mode="normal" in2="shape" result="effect1_innerShadow_3785_71141"/>
</filter>
<filter id="filter2_i_3785_71141" x="202.379" y="185.316" width="684.955" height="745.752" filterUnits="userSpaceOnUse" color-interpolation-filters="sRGB">
<feFlood flood-opacity="0" result="BackgroundImageFix"/>
<feBlend mode="normal" in="SourceGraphic" in2="BackgroundImageFix" result="shape"/>
<feColorMatrix in="SourceAlpha" type="matrix" values="0 0 0 0 0 0 0 0 0 0 0 0 0 0 0 0 0 0 127 0" result="hardAlpha"/>
<feOffset dy="4"/>
<feGaussianBlur stdDeviation="2"/>
<feComposite in2="hardAlpha" operator="arithmetic" k2="-1" k3="1"/>
<feColorMatrix type="matrix" values="0 0 0 0 0 0 0 0 0 0 0 0 0 0 0 0 0 0 0.25 0"/>
<feBlend mode="normal" in2="shape" result="effect1_innerShadow_3785_71141"/>
</filter>
<filter id="filter3_i_3785_71141" x="329.387" y="281.088" width="684.959" height="745.759" filterUnits="userSpaceOnUse" color-interpolation-filters="sRGB">
<feFlood flood-opacity="0" result="BackgroundImageFix"/>
<feBlend mode="normal" in="SourceGraphic" in2="BackgroundImageFix" result="shape"/>
<feColorMatrix in="SourceAlpha" type="matrix" values="0 0 0 0 0 0 0 0 0 0 0 0 0 0 0 0 0 0 127 0" result="hardAlpha"/>
<feOffset dy="4"/>
<feGaussianBlur stdDeviation="2"/>
<feComposite in2="hardAlpha" operator="arithmetic" k2="-1" k3="1"/>
<feColorMatrix type="matrix" values="0 0 0 0 0 0 0 0 0 0 0 0 0 0 0 0 0 0 0.25 0"/>
<feBlend mode="normal" in2="shape" result="effect1_innerShadow_3785_71141"/>
</filter>
<filter id="filter4_d_3785_71141" x="347.531" y="347.55" width="519.042" height="504.787" filterUnits="userSpaceOnUse" color-interpolation-filters="sRGB">
<feFlood flood-opacity="0" result="BackgroundImageFix"/>
<feColorMatrix in="SourceAlpha" type="matrix" values="0 0 0 0 0 0 0 0 0 0 0 0 0 0 0 0 0 0 127 0" result="hardAlpha"/>
<feOffset dx="5" dy="5"/>
<feGaussianBlur stdDeviation="7.5"/>
<feColorMatrix type="matrix" values="0 0 0 0 0.501961 0 0 0 0 0.501961 0 0 0 0 0.501961 0 0 0 0.5 0"/>
<feBlend mode="normal" in2="BackgroundImageFix" result="effect1_dropShadow_3785_71141"/>
<feBlend mode="normal" in="SourceGraphic" in2="effect1_dropShadow_3785_71141" result="shape"/>
</filter>
<filter id="filter5_ii_3785_71141" x="561.647" y="357.55" width="286.926" height="478.787" filterUnits="userSpaceOnUse" color-interpolation-filters="sRGB">
<feFlood flood-opacity="0" result="BackgroundImageFix"/>
<feBlend mode="normal" in="SourceGraphic" in2="BackgroundImageFix" result="shape"/>
<feColorMatrix in="SourceAlpha" type="matrix" values="0 0 0 0 0 0 0 0 0 0 0 0 0 0 0 0 0 0 127 0" result="hardAlpha"/>
<feOffset dx="2" dy="4"/>
<feGaussianBlur stdDeviation="5"/>
<feComposite in2="hardAlpha" operator="arithmetic" k2="-1" k3="1"/>
<feColorMatrix type="matrix" values="0 0 0 0 0 0 0 0 0 0 0 0 0 0 0 0 0 0 0.35 0"/>
<feBlend mode="normal" in2="shape" result="effect1_innerShadow_3785_71141"/>
<feColorMatrix in="SourceAlpha" type="matrix" values="0 0 0 0 0 0 0 0 0 0 0 0 0 0 0 0 0 0 127 0" result="hardAlpha"/>
<feOffset dy="4"/>
<feGaussianBlur stdDeviation="2"/>
<feComposite in2="hardAlpha" operator="arithmetic" k2="-1" k3="1"/>
<feColorMatrix type="matrix" values="0 0 0 0 1 0 0 0 0 1 0 0 0 0 1 0 0 0 0.25 0"/>
<feBlend mode="normal" in2="effect1_innerShadow_3785_71141" result="effect2_innerShadow_3785_71141"/>
</filter>
<filter id="filter6_ii_3785_71141" x="357.531" y="357.55" width="312.62" height="476.028" filterUnits="userSpaceOnUse" color-interpolation-filters="sRGB">
<feFlood flood-opacity="0" result="BackgroundImageFix"/>
<feBlend mode="normal" in="SourceGraphic" in2="BackgroundImageFix" result="shape"/>
<feColorMatrix in="SourceAlpha" type="matrix" values="0 0 0 0 0 0 0 0 0 0 0 0 0 0 0 0 0 0 127 0" result="hardAlpha"/>
<feOffset dy="4"/>
<feGaussianBlur stdDeviation="2"/>
<feComposite in2="hardAlpha" operator="arithmetic" k2="-1" k3="1"/>
<feColorMatrix type="matrix" values="0 0 0 0 0 0 0 0 0 0 0 0 0 0 0 0 0 0 0.25 0"/>
<feBlend mode="normal" in2="shape" result="effect1_innerShadow_3785_71141"/>
<feColorMatrix in="SourceAlpha" type="matrix" values="0 0 0 0 0 0 0 0 0 0 0 0 0 0 0 0 0 0 127 0" result="hardAlpha"/>
<feOffset dx="2" dy="4"/>
<feGaussianBlur stdDeviation="5"/>
<feComposite in2="hardAlpha" operator="arithmetic" k2="-1" k3="1"/>
<feColorMatrix type="matrix" values="0 0 0 0 0.9625 0 0 0 0 0.940042 0 0 0 0 0.940042 0 0 0 0.35 0"/>
<feBlend mode="normal" in2="effect1_innerShadow_3785_71141" result="effect2_innerShadow_3785_71141"/>
</filter>
<filter id="filter7_i_3785_71141" x="531.124" y="617.111" width="16.6299" height="29.627" filterUnits="userSpaceOnUse" color-interpolation-filters="sRGB">
<feFlood flood-opacity="0" result="BackgroundImageFix"/>
<feBlend mode="normal" in="SourceGraphic" in2="BackgroundImageFix" result="shape"/>
<feColorMatrix in="SourceAlpha" type="matrix" values="0 0 0 0 0 0 0 0 0 0 0 0 0 0 0 0 0 0 127 0" result="hardAlpha"/>
<feOffset dy="4"/>
<feGaussianBlur stdDeviation="5"/>
<feComposite in2="hardAlpha" operator="arithmetic" k2="-1" k3="1"/>
<feColorMatrix type="matrix" values="0 0 0 0 0 0 0 0 0 0 0 0 0 0 0 0 0 0 0.35 0"/>
<feBlend mode="normal" in2="shape" result="effect1_innerShadow_3785_71141"/>
</filter>
<filter id="filter8_i_3785_71141" x="548.41" y="621.624" width="25.1045" height="40.9873" filterUnits="userSpaceOnUse" color-interpolation-filters="sRGB">
<feFlood flood-opacity="0" result="BackgroundImageFix"/>
<feBlend mode="normal" in="SourceGraphic" in2="BackgroundImageFix" result="shape"/>
<feColorMatrix in="SourceAlpha" type="matrix" values="0 0 0 0 0 0 0 0 0 0 0 0 0 0 0 0 0 0 127 0" result="hardAlpha"/>
<feOffset dy="4"/>
<feGaussianBlur stdDeviation="5"/>
<feComposite in2="hardAlpha" operator="arithmetic" k2="-1" k3="1"/>
<feColorMatrix type="matrix" values="0 0 0 0 0 0 0 0 0 0 0 0 0 0 0 0 0 0 0.35 0"/>
<feBlend mode="normal" in2="shape" result="effect1_innerShadow_3785_71141"/>
</filter>
<filter id="filter9_i_3785_71141" x="566.936" y="633.53" width="25.1045" height="40.9873" filterUnits="userSpaceOnUse" color-interpolation-filters="sRGB">
<feFlood flood-opacity="0" result="BackgroundImageFix"/>
<feBlend mode="normal" in="SourceGraphic" in2="BackgroundImageFix" result="shape"/>
<feColorMatrix in="SourceAlpha" type="matrix" values="0 0 0 0 0 0 0 0 0 0 0 0 0 0 0 0 0 0 127 0" result="hardAlpha"/>
<feOffset dy="4"/>
<feGaussianBlur stdDeviation="5"/>
<feComposite in2="hardAlpha" operator="arithmetic" k2="-1" k3="1"/>
<feColorMatrix type="matrix" values="0 0 0 0 0 0 0 0 0 0 0 0 0 0 0 0 0 0 0.35 0"/>
<feBlend mode="normal" in2="shape" result="effect1_innerShadow_3785_71141"/>
</filter>
<filter id="filter10_i_3785_71141" x="585.675" y="649.266" width="20.5215" height="34.2363" filterUnits="userSpaceOnUse" color-interpolation-filters="sRGB">
<feFlood flood-opacity="0" result="BackgroundImageFix"/>
<feBlend mode="normal" in="SourceGraphic" in2="BackgroundImageFix" result="shape"/>
<feColorMatrix in="SourceAlpha" type="matrix" values="0 0 0 0 0 0 0 0 0 0 0 0 0 0 0 0 0 0 127 0" result="hardAlpha"/>
<feOffset dy="4"/>
<feGaussianBlur stdDeviation="5"/>
<feComposite in2="hardAlpha" operator="arithmetic" k2="-1" k3="1"/>
<feColorMatrix type="matrix" values="0 0 0 0 0 0 0 0 0 0 0 0 0 0 0 0 0 0 0.35 0"/>
<feBlend mode="normal" in2="shape" result="effect1_innerShadow_3785_71141"/>
</filter>
</defs>
</svg>
